<mxfile host="app.diagrams.net" modified="2023-08-17T09:54:20.222Z" agent="Mozilla/5.0 (X11; Linux x86_64) AppleWebKit/537.36 (KHTML, like Gecko) Chrome/115.0.0.0 Safari/537.36" etag="iXV17cDI3Sd4D93UNvVc" version="21.6.8" type="github">
  <diagram id="R2lEEEUBdFMjLlhIrx00" name="Page-1">
    <mxGraphModel dx="1434" dy="701" grid="1" gridSize="10" guides="1" tooltips="1" connect="1" arrows="1" fold="1" page="1" pageScale="1" pageWidth="850" pageHeight="1100" math="0" shadow="0" extFonts="Permanent Marker^https://fonts.googleapis.com/css?family=Permanent+Marker">
      <root>
        <mxCell id="0" />
        <mxCell id="1" parent="0" />
        <mxCell id="VgA194DzSSAqWwqliwwQ-3" style="edgeStyle=orthogonalEdgeStyle;rounded=0;orthogonalLoop=1;jettySize=auto;html=1;entryX=0;entryY=0.5;entryDx=0;entryDy=0;startArrow=ERoneToMany;startFill=0;endArrow=ERmany;endFill=0;" edge="1" parent="1" source="iRE2MkJzw3hHKovkKY3E-27" target="VgA194DzSSAqWwqliwwQ-2">
          <mxGeometry relative="1" as="geometry" />
        </mxCell>
        <mxCell id="iRE2MkJzw3hHKovkKY3E-27" value="Members" style="rounded=0;whiteSpace=wrap;html=1;spacing=2;fontSize=14;fontStyle=1" parent="1" vertex="1">
          <mxGeometry x="200" y="80" width="120" height="80" as="geometry" />
        </mxCell>
        <mxCell id="7E9sQJQG1h89ynIiedTO-1" value="" style="edgeStyle=orthogonalEdgeStyle;endArrow=ERone;startArrow=ERzeroToOne;endFill=0;startFill=0;entryX=0;entryY=0.25;entryDx=0;entryDy=0;exitX=1;exitY=0.5;exitDx=0;exitDy=0;" parent="1" source="7E9sQJQG1h89ynIiedTO-23" target="7E9sQJQG1h89ynIiedTO-2" edge="1">
          <mxGeometry width="100" height="100" relative="1" as="geometry">
            <mxPoint x="360" y="540" as="sourcePoint" />
            <mxPoint x="440" y="940" as="targetPoint" />
          </mxGeometry>
        </mxCell>
        <mxCell id="7E9sQJQG1h89ynIiedTO-2" value="Status" style="shape=table;startSize=30;container=1;collapsible=1;childLayout=tableLayout;fixedRows=1;rowLines=0;fontStyle=1;align=center;resizeLast=1;" parent="1" vertex="1">
          <mxGeometry x="440" y="600" width="160" height="90" as="geometry" />
        </mxCell>
        <mxCell id="7E9sQJQG1h89ynIiedTO-3" value="" style="shape=partialRectangle;collapsible=0;dropTarget=0;pointerEvents=0;fillColor=none;points=[[0,0.5],[1,0.5]];portConstraint=eastwest;top=0;left=0;right=0;bottom=1;" parent="7E9sQJQG1h89ynIiedTO-2" vertex="1">
          <mxGeometry y="30" width="160" height="30" as="geometry" />
        </mxCell>
        <mxCell id="7E9sQJQG1h89ynIiedTO-4" value="PK" style="shape=partialRectangle;overflow=hidden;connectable=0;fillColor=none;top=0;left=0;bottom=0;right=0;fontStyle=1;" parent="7E9sQJQG1h89ynIiedTO-3" vertex="1">
          <mxGeometry width="30" height="30" as="geometry">
            <mxRectangle width="30" height="30" as="alternateBounds" />
          </mxGeometry>
        </mxCell>
        <mxCell id="7E9sQJQG1h89ynIiedTO-5" value="entry_id" style="shape=partialRectangle;overflow=hidden;connectable=0;fillColor=none;top=0;left=0;bottom=0;right=0;align=left;spacingLeft=6;fontStyle=5;" parent="7E9sQJQG1h89ynIiedTO-3" vertex="1">
          <mxGeometry x="30" width="130" height="30" as="geometry">
            <mxRectangle width="130" height="30" as="alternateBounds" />
          </mxGeometry>
        </mxCell>
        <mxCell id="7E9sQJQG1h89ynIiedTO-6" value="" style="shape=partialRectangle;collapsible=0;dropTarget=0;pointerEvents=0;fillColor=none;points=[[0,0.5],[1,0.5]];portConstraint=eastwest;top=0;left=0;right=0;bottom=0;" parent="7E9sQJQG1h89ynIiedTO-2" vertex="1">
          <mxGeometry y="60" width="160" height="30" as="geometry" />
        </mxCell>
        <mxCell id="7E9sQJQG1h89ynIiedTO-7" value="" style="shape=partialRectangle;overflow=hidden;connectable=0;fillColor=none;top=0;left=0;bottom=0;right=0;" parent="7E9sQJQG1h89ynIiedTO-6" vertex="1">
          <mxGeometry width="30" height="30" as="geometry">
            <mxRectangle width="30" height="30" as="alternateBounds" />
          </mxGeometry>
        </mxCell>
        <mxCell id="7E9sQJQG1h89ynIiedTO-8" value="close_date" style="shape=partialRectangle;overflow=hidden;connectable=0;fillColor=none;top=0;left=0;bottom=0;right=0;align=left;spacingLeft=6;" parent="7E9sQJQG1h89ynIiedTO-6" vertex="1">
          <mxGeometry x="30" width="130" height="30" as="geometry">
            <mxRectangle width="130" height="30" as="alternateBounds" />
          </mxGeometry>
        </mxCell>
        <mxCell id="7E9sQJQG1h89ynIiedTO-9" value="Case" style="shape=table;startSize=30;container=1;collapsible=1;childLayout=tableLayout;fixedRows=1;rowLines=0;fontStyle=1;align=center;resizeLast=1;" parent="1" vertex="1">
          <mxGeometry x="440" y="440" width="160" height="120" as="geometry" />
        </mxCell>
        <mxCell id="7E9sQJQG1h89ynIiedTO-10" value="" style="shape=partialRectangle;collapsible=0;dropTarget=0;pointerEvents=0;fillColor=none;points=[[0,0.5],[1,0.5]];portConstraint=eastwest;top=0;left=0;right=0;bottom=1;" parent="7E9sQJQG1h89ynIiedTO-9" vertex="1">
          <mxGeometry y="30" width="160" height="30" as="geometry" />
        </mxCell>
        <mxCell id="7E9sQJQG1h89ynIiedTO-11" value="PK" style="shape=partialRectangle;overflow=hidden;connectable=0;fillColor=none;top=0;left=0;bottom=0;right=0;fontStyle=1;" parent="7E9sQJQG1h89ynIiedTO-10" vertex="1">
          <mxGeometry width="30" height="30" as="geometry">
            <mxRectangle width="30" height="30" as="alternateBounds" />
          </mxGeometry>
        </mxCell>
        <mxCell id="7E9sQJQG1h89ynIiedTO-12" value="entry_id" style="shape=partialRectangle;overflow=hidden;connectable=0;fillColor=none;top=0;left=0;bottom=0;right=0;align=left;spacingLeft=6;fontStyle=5;" parent="7E9sQJQG1h89ynIiedTO-10" vertex="1">
          <mxGeometry x="30" width="130" height="30" as="geometry">
            <mxRectangle width="130" height="30" as="alternateBounds" />
          </mxGeometry>
        </mxCell>
        <mxCell id="7E9sQJQG1h89ynIiedTO-13" value="" style="shape=partialRectangle;collapsible=0;dropTarget=0;pointerEvents=0;fillColor=none;points=[[0,0.5],[1,0.5]];portConstraint=eastwest;top=0;left=0;right=0;bottom=0;" parent="7E9sQJQG1h89ynIiedTO-9" vertex="1">
          <mxGeometry y="60" width="160" height="30" as="geometry" />
        </mxCell>
        <mxCell id="7E9sQJQG1h89ynIiedTO-14" value="" style="shape=partialRectangle;overflow=hidden;connectable=0;fillColor=none;top=0;left=0;bottom=0;right=0;" parent="7E9sQJQG1h89ynIiedTO-13" vertex="1">
          <mxGeometry width="30" height="30" as="geometry">
            <mxRectangle width="30" height="30" as="alternateBounds" />
          </mxGeometry>
        </mxCell>
        <mxCell id="7E9sQJQG1h89ynIiedTO-15" value="case_name" style="shape=partialRectangle;overflow=hidden;connectable=0;fillColor=none;top=0;left=0;bottom=0;right=0;align=left;spacingLeft=6;" parent="7E9sQJQG1h89ynIiedTO-13" vertex="1">
          <mxGeometry x="30" width="130" height="30" as="geometry">
            <mxRectangle width="130" height="30" as="alternateBounds" />
          </mxGeometry>
        </mxCell>
        <mxCell id="7E9sQJQG1h89ynIiedTO-16" value="" style="shape=partialRectangle;collapsible=0;dropTarget=0;pointerEvents=0;fillColor=none;points=[[0,0.5],[1,0.5]];portConstraint=eastwest;top=0;left=0;right=0;bottom=0;" parent="7E9sQJQG1h89ynIiedTO-9" vertex="1">
          <mxGeometry y="90" width="160" height="30" as="geometry" />
        </mxCell>
        <mxCell id="7E9sQJQG1h89ynIiedTO-17" value="" style="shape=partialRectangle;overflow=hidden;connectable=0;fillColor=none;top=0;left=0;bottom=0;right=0;" parent="7E9sQJQG1h89ynIiedTO-16" vertex="1">
          <mxGeometry width="30" height="30" as="geometry">
            <mxRectangle width="30" height="30" as="alternateBounds" />
          </mxGeometry>
        </mxCell>
        <mxCell id="7E9sQJQG1h89ynIiedTO-18" value="case_type" style="shape=partialRectangle;overflow=hidden;connectable=0;fillColor=none;top=0;left=0;bottom=0;right=0;align=left;spacingLeft=6;" parent="7E9sQJQG1h89ynIiedTO-16" vertex="1">
          <mxGeometry x="30" width="130" height="30" as="geometry">
            <mxRectangle width="130" height="30" as="alternateBounds" />
          </mxGeometry>
        </mxCell>
        <mxCell id="7E9sQJQG1h89ynIiedTO-19" value="Entry" style="shape=table;startSize=30;container=1;collapsible=1;childLayout=tableLayout;fixedRows=1;rowLines=0;fontStyle=1;align=center;resizeLast=1;" parent="1" vertex="1">
          <mxGeometry x="200" y="440" width="160" height="180" as="geometry" />
        </mxCell>
        <mxCell id="7E9sQJQG1h89ynIiedTO-20" value="" style="shape=partialRectangle;collapsible=0;dropTarget=0;pointerEvents=0;fillColor=none;points=[[0,0.5],[1,0.5]];portConstraint=eastwest;top=0;left=0;right=0;bottom=1;" parent="7E9sQJQG1h89ynIiedTO-19" vertex="1">
          <mxGeometry y="30" width="160" height="30" as="geometry" />
        </mxCell>
        <mxCell id="7E9sQJQG1h89ynIiedTO-21" value="PK" style="shape=partialRectangle;overflow=hidden;connectable=0;fillColor=none;top=0;left=0;bottom=0;right=0;fontStyle=1;" parent="7E9sQJQG1h89ynIiedTO-20" vertex="1">
          <mxGeometry width="30" height="30" as="geometry">
            <mxRectangle width="30" height="30" as="alternateBounds" />
          </mxGeometry>
        </mxCell>
        <mxCell id="7E9sQJQG1h89ynIiedTO-22" value="id" style="shape=partialRectangle;overflow=hidden;connectable=0;fillColor=none;top=0;left=0;bottom=0;right=0;align=left;spacingLeft=6;fontStyle=5;" parent="7E9sQJQG1h89ynIiedTO-20" vertex="1">
          <mxGeometry x="30" width="130" height="30" as="geometry">
            <mxRectangle width="130" height="30" as="alternateBounds" />
          </mxGeometry>
        </mxCell>
        <mxCell id="7E9sQJQG1h89ynIiedTO-23" value="" style="shape=partialRectangle;collapsible=0;dropTarget=0;pointerEvents=0;fillColor=none;points=[[0,0.5],[1,0.5]];portConstraint=eastwest;top=0;left=0;right=0;bottom=0;" parent="7E9sQJQG1h89ynIiedTO-19" vertex="1">
          <mxGeometry y="60" width="160" height="120" as="geometry" />
        </mxCell>
        <mxCell id="7E9sQJQG1h89ynIiedTO-24" value="" style="shape=partialRectangle;overflow=hidden;connectable=0;fillColor=none;top=0;left=0;bottom=0;right=0;" parent="7E9sQJQG1h89ynIiedTO-23" vertex="1">
          <mxGeometry width="30" height="120" as="geometry">
            <mxRectangle width="30" height="120" as="alternateBounds" />
          </mxGeometry>
        </mxCell>
        <mxCell id="7E9sQJQG1h89ynIiedTO-25" value="entry_type&#xa;&#xa;entry_status&#xa;&#xa;publish_data&#xa;&#xa;user_name" style="shape=partialRectangle;overflow=hidden;connectable=0;fillColor=none;top=0;left=0;bottom=0;right=0;align=left;spacingLeft=6;" parent="7E9sQJQG1h89ynIiedTO-23" vertex="1">
          <mxGeometry x="30" width="130" height="120" as="geometry">
            <mxRectangle width="130" height="120" as="alternateBounds" />
          </mxGeometry>
        </mxCell>
        <mxCell id="7E9sQJQG1h89ynIiedTO-26" style="edgeStyle=orthogonalEdgeStyle;rounded=0;orthogonalLoop=1;jettySize=auto;html=1;entryX=0;entryY=0.5;entryDx=0;entryDy=0;startArrow=ERone;startFill=0;endArrow=ERone;endFill=0;" parent="1" source="7E9sQJQG1h89ynIiedTO-20" target="7E9sQJQG1h89ynIiedTO-10" edge="1">
          <mxGeometry relative="1" as="geometry" />
        </mxCell>
        <mxCell id="VgA194DzSSAqWwqliwwQ-5" style="edgeStyle=orthogonalEdgeStyle;rounded=0;orthogonalLoop=1;jettySize=auto;html=1;entryX=0.5;entryY=0;entryDx=0;entryDy=0;endArrow=ERmandOne;endFill=0;startArrow=ERzeroToMany;startFill=0;" edge="1" parent="1" source="VgA194DzSSAqWwqliwwQ-2" target="VgA194DzSSAqWwqliwwQ-4">
          <mxGeometry relative="1" as="geometry" />
        </mxCell>
        <mxCell id="VgA194DzSSAqWwqliwwQ-2" value="Commissions" style="rounded=0;whiteSpace=wrap;html=1;spacing=2;fontSize=14;fontStyle=1" vertex="1" parent="1">
          <mxGeometry x="400" y="80" width="120" height="80" as="geometry" />
        </mxCell>
        <mxCell id="VgA194DzSSAqWwqliwwQ-6" style="edgeStyle=orthogonalEdgeStyle;rounded=0;orthogonalLoop=1;jettySize=auto;html=1;entryX=0.5;entryY=1;entryDx=0;entryDy=0;endArrow=ERzeroToMany;endFill=0;startArrow=ERmany;startFill=0;" edge="1" parent="1" source="VgA194DzSSAqWwqliwwQ-4" target="iRE2MkJzw3hHKovkKY3E-27">
          <mxGeometry relative="1" as="geometry" />
        </mxCell>
        <mxCell id="VgA194DzSSAqWwqliwwQ-4" value="Schedule" style="rounded=0;whiteSpace=wrap;html=1;spacing=2;fontSize=14;fontStyle=1" vertex="1" parent="1">
          <mxGeometry x="400" y="240" width="120" height="80" as="geometry" />
        </mxCell>
      </root>
    </mxGraphModel>
  </diagram>
</mxfile>
